<svg width="28" height="28" viewBox="0 0 28 28" fill="none" xmlns="http://www.w3.org/2000/svg">
<path d="M25.3175 10.9564L14.4809 1.4605C13.8973 0.949041 13.0258 0.94904 12.4421 1.4605L1.60557 10.9564C1.26961 11.2507 1.0769 11.676 1.0769 12.1231V25.3727C1.0769 26.2289 1.77 26.9231 2.62498 26.9231H8.81729C9.67227 26.9231 10.3654 26.2289 10.3654 25.3727V19.1713C10.3654 18.3151 11.0585 17.621 11.9134 17.621H15.0096C15.8646 17.621 16.5577 18.3151 16.5577 19.1713V25.3727C16.5577 26.2289 17.2508 26.9231 18.1057 26.9231H24.2981C25.153 26.9231 25.8461 26.2289 25.8461 25.3727V12.1231C25.8461 11.676 25.6534 11.2507 25.3175 10.9564Z" stroke="#9E9E9E" stroke-width="2" stroke-linecap="round" stroke-linejoin="round"/>
</svg>
