<svg width="28" height="30" viewBox="0 0 28 30" fill="none" xmlns="http://www.w3.org/2000/svg">
<path d="M26.9998 10.9355C26.9998 15.1228 24.4286 18.7051 20.79 20.1674C20.79 20.1674 20.58 14.2297 16.8004 11.2395C12.7935 8.06948 7.34399 9.76013 7.34399 9.76013C7.92112 4.82688 12.0858 1 17.1377 1C22.5844 1 26.9998 5.44827 26.9998 10.9355Z" stroke="#9E9E9E" stroke-width="2"/>
<ellipse cx="10.8621" cy="19.0645" rx="9.86207" ry="9.93548" stroke="#9E9E9E" stroke-width="2"/>
<path d="M10.89 25.3871C10.6408 25.3871 10.4302 25.2986 10.2583 25.1217C10.0864 24.9448 10.0005 24.7237 10.0005 24.4583V23.4764L10.3872 23.8347C9.81136 23.8081 9.31286 23.7329 8.89171 23.6091C8.47057 23.4852 8.12677 23.3614 7.86033 23.2376C7.63686 23.1314 7.47786 22.981 7.38331 22.7864C7.29737 22.5918 7.26299 22.3928 7.28018 22.1893C7.30596 21.9859 7.37902 21.8001 7.49935 21.632C7.61967 21.464 7.77438 21.3534 7.96347 21.3003C8.16115 21.2384 8.38891 21.2649 8.64676 21.3799C8.81866 21.4772 9.0765 21.579 9.4203 21.6851C9.77269 21.7824 10.2067 21.8311 10.7224 21.8311C11.0834 21.8311 11.367 21.7957 11.5733 21.7249C11.7882 21.6542 11.9386 21.5613 12.0245 21.4463C12.1191 21.3224 12.1664 21.1897 12.1664 21.0482C12.1664 20.9155 12.132 20.8049 12.0632 20.7165C12.0031 20.6192 11.8999 20.5351 11.7538 20.4644C11.6077 20.3848 11.4057 20.314 11.1479 20.2521L9.69104 19.9336C8.89171 19.7479 8.29437 19.4383 7.89901 19.0048C7.51224 18.5625 7.31885 17.992 7.31885 17.2931C7.31885 16.7624 7.44348 16.2891 7.69273 15.8734C7.95058 15.4488 8.30726 15.1038 8.76279 14.8384C9.22691 14.573 9.76839 14.405 10.3872 14.3342L10.0005 14.5598V13.6708C10.0005 13.4054 10.0864 13.1842 10.2583 13.0073C10.4302 12.8304 10.6408 12.7419 10.89 12.7419C11.1479 12.7419 11.3627 12.8304 11.5346 13.0073C11.7065 13.1842 11.7925 13.4054 11.7925 13.6708V14.5598L11.4057 14.3077C11.7323 14.3165 12.0847 14.374 12.4629 14.4802C12.8411 14.5775 13.172 14.7146 13.4556 14.8915C13.6533 14.9976 13.7908 15.1436 13.8681 15.3294C13.9541 15.5151 13.9842 15.7053 13.9584 15.8999C13.9412 16.0857 13.8724 16.2538 13.7521 16.4041C13.6404 16.5545 13.4857 16.6562 13.288 16.7093C13.0989 16.7535 12.8711 16.7182 12.6047 16.6032C12.407 16.5147 12.1835 16.4439 11.9343 16.3909C11.6936 16.3289 11.3842 16.298 11.006 16.298C10.5505 16.298 10.1981 16.382 9.94888 16.5501C9.70823 16.7182 9.5879 16.9349 9.5879 17.2003C9.5879 17.3772 9.65666 17.5276 9.79417 17.6514C9.94029 17.7664 10.2024 17.8681 10.5806 17.9566L12.0503 18.2883C12.8668 18.4741 13.4685 18.7837 13.8552 19.2171C14.2506 19.6417 14.4483 20.1946 14.4483 20.8757C14.4483 21.4065 14.3237 21.8753 14.0744 22.2822C13.8252 22.6891 13.4771 23.0208 13.0301 23.2774C12.5918 23.5339 12.0804 23.702 11.496 23.7816L11.7925 23.4631V24.4583C11.7925 24.7237 11.7065 24.9448 11.5346 25.1217C11.3713 25.2986 11.1565 25.3871 10.89 25.3871Z" fill="#9E9E9E"/>
</svg>
