<svg width="30" height="26" viewBox="0 0 30 26" fill="none" xmlns="http://www.w3.org/2000/svg">
<path d="M10.561 13H1.92308C1.41328 13 1 13.4133 1 13.9231V24.0769C1 24.5867 1.41328 25 1.92308 25H10.561M10.561 13V1.92308C10.561 1.41328 10.9743 1 11.4841 1H18.7436C19.2534 1 19.6667 1.41328 19.6667 1.92308V6.5M10.561 13V25M19.6667 25H28.0769C28.5867 25 29 24.5867 29 24.0769V7.42308C29 6.91328 28.5867 6.5 28.0769 6.5H19.6667M19.6667 25V6.5M19.6667 25H10.561" stroke="#9E9E9E" stroke-width="2"/>
</svg>
